<?xml version="1.0" encoding="UTF-8" standalone="no"?>
<!-- Created with Inkscape (http://www.inkscape.org/) -->

<svg
   version="1.1"
   id="svg749"
   xml:space="preserve"
   width="1066.6667"
   height="1066.6667"
   viewBox="0 0 1066.6667 1066.6667"
   sodipodi:docname="clown-hat-publicdomainvectors.org.svg"
   inkscape:version="1.1.2 (b8e25be833, 2022-02-05)"
   xmlns:inkscape="http://www.inkscape.org/namespaces/inkscape"
   xmlns:sodipodi="http://sodipodi.sourceforge.net/DTD/sodipodi-0.dtd"
   xmlns="http://www.w3.org/2000/svg"
   xmlns:svg="http://www.w3.org/2000/svg"><defs
     id="defs753"><clipPath
       clipPathUnits="userSpaceOnUse"
       id="clipPath763"><path
         d="M 0,800 H 800 V 0 H 0 Z"
         id="path761" /></clipPath></defs><sodipodi:namedview
     id="namedview751"
     pagecolor="#ffffff"
     bordercolor="#666666"
     borderopacity="1.0"
     inkscape:pageshadow="2"
     inkscape:pageopacity="0.0"
     inkscape:pagecheckerboard="0"
     showgrid="false"
     inkscape:zoom="0.77906244"
     inkscape:cx="533.33337"
     inkscape:cy="533.33337"
     inkscape:window-width="1920"
     inkscape:window-height="1018"
     inkscape:window-x="-8"
     inkscape:window-y="-8"
     inkscape:window-maximized="1"
     inkscape:current-layer="g755" /><g
     id="g755"
     inkscape:groupmode="layer"
     inkscape:label="clown-hat-publicdomainvectors.org"
     transform="matrix(1.3333333,0,0,-1.3333333,0,1066.6667)"><g
       id="g757"><g
         id="g759"
         clip-path="url(#clipPath763)"><path
           d="m 296.645,582.102 c 0.458,5.457 1.851,11.183 2.756,16.889 -0.161,23.167 0.84,45.781 6.458,66.155 6.478,11.211 16.485,10.815 26.954,14.637 11.107,4.055 22.759,11.798 32.009,5.069 16.96,-29.351 20.236,-70.568 26.626,-109.085 -13.748,-44.749 -27.496,-89.5 -41.246,-134.25 -17.851,46.862 -35.704,93.723 -53.557,140.585"
           style="fill:#ffcc00;fill-opacity:1;fill-rule:evenodd;stroke:none"
           id="path765" /><path
           d="m 565.965,504.127 c 0.236,5.457 -0.969,11.183 -1.406,16.891 4.367,23.167 6.773,45.779 1.406,66.153 -8.363,11.212 -24.438,10.816 -40.498,14.638 -17.045,4.054 -34.305,11.798 -50.287,5.067 -32.328,-29.35 -44.881,-70.566 -61.932,-109.083 14.043,-44.749 28.088,-89.5 42.135,-134.25 36.861,46.861 73.721,93.723 110.582,140.584"
           style="fill:#990099;fill-opacity:1;fill-rule:evenodd;stroke:none"
           id="path767" /><path
           d="m 419.42,344.91 c 36.113,83.12 60.797,173.517 167.336,211.822 36.955,-18.862 73.908,-37.723 110.863,-56.586 C 602.256,453.096 594.762,377.801 586.756,302.673 530.979,316.752 475.199,330.83 419.42,344.91"
           style="fill:#d65600;fill-opacity:1;fill-rule:evenodd;stroke:none"
           id="path769" /><path
           d="m 563.328,546.872 c 7.342,3.583 15.139,6.879 23.428,9.86 14.096,-7.193 28.189,-14.388 42.285,-21.583 5.719,-19.431 11.439,-38.863 17.156,-58.294 -2.388,-6.382 -4.779,-12.764 -7.166,-19.146 -20.074,34.284 -43.422,65.675 -75.703,89.163"
           style="fill:#b84a00;fill-opacity:1;fill-rule:evenodd;stroke:none"
           id="path771" /><path
           d="m 586.756,556.732 c 35.461,-48.291 60.777,-102.987 66.98,-169.758 26.66,35.192 46.508,71.815 43.883,113.172 -29.351,34.828 -66.113,54.093 -110.863,56.586"
           style="fill:#ff6600;fill-opacity:1;fill-rule:evenodd;stroke:none"
           id="path773" /><path
           d="m 149.421,682.196 c -25.072,-27.491 -24.962,-80.368 -15.514,-142.66 16.513,78.792 52.849,127.043 108.173,146.054 -33.755,6.106 -64.4,5.322 -92.659,-3.394"
           style="fill:#00aed9;fill-opacity:1;fill-rule:evenodd;stroke:none"
           id="path775" /><path
           d="m 149.421,682.196 c -5.063,-5.549 -9.095,-12.133 -12.233,-19.62 20.229,4.457 39.211,4.08 55.687,-6.01 0.399,0.148 14.122,11.329 16.545,12.943 -9.647,6.34 -19.294,12.679 -28.939,19.019 -10.678,-1.14 -21.021,-3.235 -31.06,-6.332"
           style="fill:#009bc2;fill-opacity:1;fill-rule:evenodd;stroke:none"
           id="path777" /><path
           d="m 384.607,315.353 c -27.272,211.944 -54.834,423.38 -235.186,366.843 127.884,-40.906 94.361,-215.128 76.242,-376.626 52.982,3.263 105.962,6.525 158.944,9.783"
           style="fill:#00ccff;fill-opacity:1;fill-rule:evenodd;stroke:none"
           id="path779" /><path
           d="m 380.566,346.548 c -16.747,127.864 -36.351,250.721 -92.618,309.275 58.921,-87.452 60.194,-228.94 31.34,-340.132 20.426,10.286 40.852,20.571 61.278,30.857"
           style="fill:#00aed9;fill-opacity:1;fill-rule:evenodd;stroke:none"
           id="path781" /><path
           d="m 342.866,349.91 c 7.89,182.971 16.069,365.505 175.943,316.696 -107.379,-35.315 -65.573,-185.719 -38.002,-325.141 -45.981,2.814 -91.96,5.63 -137.941,8.445"
           style="fill:#5f992c;fill-opacity:1;fill-rule:evenodd;stroke:none"
           id="path783" /><path
           d="m 410.494,653.15 c 16.188,14.119 36.555,21.866 62.285,21.433 8.325,-5.817 16.649,-11.634 24.975,-17.452 -6.885,-4.082 -12.906,-8.83 -18.133,-14.186 -18.168,13.156 -40.642,17.693 -69.127,10.205"
           style="fill:#4c861a;fill-opacity:1;fill-rule:evenodd;stroke:none"
           id="path785" /><path
           d="m 518.809,666.606 c 23.673,-23.733 27.484,-69.382 23.929,-123.159 -20.074,68.021 -55.008,109.677 -104.172,126.089 28.215,10.774 54.84,8.816 80.243,-2.93"
           style="fill:#7cb54b;fill-opacity:1;fill-rule:evenodd;stroke:none"
           id="path787" /><path
           d="m 542.734,510.017 c 11.825,0 21.467,9.642 21.467,21.464 0,11.824 -9.642,21.465 -21.467,21.465 -11.82,0 -21.463,-9.641 -21.463,-21.465 0,-11.822 9.643,-21.464 21.463,-21.464"
           style="fill:#ffcc00;fill-opacity:1;fill-rule:evenodd;stroke:none"
           id="path789" /><path
           d="m 533.873,535.43 c 3.582,0 6.502,2.921 6.502,6.5 0,3.581 -2.92,6.501 -6.502,6.501 -3.58,0 -6.498,-2.92 -6.498,-6.501 0,-3.579 2.918,-6.5 6.498,-6.5"
           style="fill:#ffeeab;fill-opacity:1;fill-rule:evenodd;stroke:none"
           id="path791" /><path
           d="m 557.084,547.444 c 4.367,-3.928 7.117,-9.625 7.117,-15.963 0,-11.854 -9.611,-21.464 -21.467,-21.464 -8.32,0 -15.537,4.737 -19.095,11.659 3.8,-3.419 8.83,-5.501 14.347,-5.501 11.854,0 21.463,9.61 21.463,21.464 0,3.533 -0.853,6.866 -2.365,9.805"
           style="fill:#edbe00;fill-opacity:1;fill-rule:evenodd;stroke:none"
           id="path793" /><path
           d="m 218.295,241.942 c 80.673,-29.589 280.56,-28.586 371.553,0 -26.731,19.1 -53.459,38.2 -80.19,57.296 -55.597,7.743 -111.196,15.483 -166.792,23.226 -41.525,-26.841 -83.046,-53.681 -124.571,-80.522"
           style="fill:#b08d00;fill-opacity:1;fill-rule:evenodd;stroke:none"
           id="path795" /><path
           d="m 383.312,462.06 -4.339,-80.287 c -1.229,-22.743 -36.549,-28.304 -39.795,0.704 l -5.308,47.379 c -3.017,26.952 -28.428,24.979 -29.464,-1.018 l -2.245,-56.277 c -0.98,-24.634 -23.198,-21.754 -26.341,-3.398 l -4.453,25.999 c -3.606,21.062 -21.562,19.914 -21.879,-2.83 l -0.563,-40.27 c -0.238,-17.166 -16.699,-29.226 -24.783,-7.032 -4.864,13.351 -16.561,12.087 -15.024,-4.453 l 9.177,-98.635 c 126.752,41.569 250.434,39.131 371.553,0 l 9.177,98.635 c 1.539,16.541 -10.158,17.804 -15.021,4.453 -8.088,-22.195 -24.545,-10.134 -24.783,7.032 l -0.565,40.27 c -0.314,22.744 -18.271,23.892 -21.877,2.83 l -4.453,-25.999 c -3.144,-18.356 -25.361,-21.237 -26.342,3.398 l -2.246,56.277 c -1.035,25.998 -26.445,27.97 -29.465,1.018 l -5.306,-47.379 C 465.719,353.469 430.4,359.029 429.17,381.773 l -4.34,80.287 c -1.887,34.974 -40.379,35.321 -41.518,0"
           style="fill:#ffcc00;fill-opacity:1;fill-rule:evenodd;stroke:none"
           id="path797" /><path
           d="m 131.873,511.127 c 13.692,0 24.861,11.169 24.861,24.863 0,13.695 -11.169,24.864 -24.861,24.864 -13.695,0 -24.866,-11.169 -24.866,-24.864 0,-13.694 11.171,-24.863 24.866,-24.863"
           style="fill:#ffcc00;fill-opacity:1;fill-rule:evenodd;stroke:none"
           id="path799" /><path
           d="m 142.136,540.563 c 4.147,0 7.53,3.383 7.53,7.53 0,4.148 -3.383,7.529 -7.53,7.529 -4.147,0 -7.528,-3.381 -7.528,-7.529 0,-4.147 3.381,-7.53 7.528,-7.53"
           style="fill:#ffeeab;fill-opacity:1;fill-rule:evenodd;stroke:none"
           id="path801" /><path
           d="m 115.25,554.481 c -5.061,-4.552 -8.243,-11.15 -8.243,-18.491 0,-13.732 11.132,-24.863 24.863,-24.863 9.638,0 17.996,5.485 22.124,13.506 -4.403,-3.961 -10.231,-6.373 -16.621,-6.373 -13.732,0 -24.863,11.131 -24.863,24.863 0,4.092 0.99,7.954 2.74,11.358"
           style="fill:#edbe00;fill-opacity:1;fill-rule:evenodd;stroke:none"
           id="path803" /><path
           d="m 655.346,346.072 c 13.695,0 24.865,11.17 24.865,24.864 0,13.695 -11.17,24.865 -24.865,24.865 -13.694,0 -24.864,-11.17 -24.864,-24.865 0,-13.694 11.17,-24.864 24.864,-24.864"
           style="fill:#ffcc00;fill-opacity:1;fill-rule:evenodd;stroke:none"
           id="path805" /><path
           d="m 665.611,375.51 c 4.147,0 7.53,3.383 7.53,7.529 0,4.148 -3.383,7.529 -7.53,7.529 -4.146,0 -7.531,-3.381 -7.531,-7.529 0,-4.146 3.385,-7.529 7.531,-7.529"
           style="fill:#ffeeab;fill-opacity:1;fill-rule:evenodd;stroke:none"
           id="path807" /><path
           d="m 638.725,389.427 c -5.061,-4.552 -8.243,-11.15 -8.243,-18.491 0,-13.732 11.131,-24.864 24.864,-24.864 9.64,0 17.996,5.487 22.123,13.507 -4.403,-3.961 -10.229,-6.374 -16.621,-6.374 -13.731,0 -24.864,11.132 -24.864,24.863 0,4.093 0.991,7.953 2.741,11.359"
           style="fill:#edbe00;fill-opacity:1;fill-rule:evenodd;stroke:none"
           id="path809" /></g></g></g></svg>
